<?xml version="1.0" standalone="no"?>
<!DOCTYPE svg PUBLIC "-//W3C//DTD SVG 20010904//EN"
 "http://www.w3.org/TR/2001/REC-SVG-20010904/DTD/svg10.dtd">
<svg version="1.0" xmlns="http://www.w3.org/2000/svg"
 width="512.000000pt" height="512.000000pt" viewBox="0 0 512.000000 512.000000"
 preserveAspectRatio="xMidYMid meet">
<metadata>
Created by potrace 1.11, written by Peter Selinger 2001-2013
</metadata>
<g transform="translate(0.000000,512.000000) scale(0.100000,-0.100000)"
fill="#000000" stroke="none">
<path d="M0 2560 l0 -2560 2560 0 2560 0 0 2560 0 2560 -2560 0 -2560 0 0
-2560z m4299 916 c16 -19 -42 -970 -60 -992 -15 -19 -172 -20 -187 -1 -6 7
-22 194 -36 432 -14 231 -28 448 -31 481 -9 91 -5 94 164 94 108 0 141 -3 150
-14z m-3299 -66 c10 -5 141 -175 290 -377 150 -203 276 -372 280 -377 5 -4
137 163 294 373 192 255 293 382 308 386 13 3 86 4 163 3 120 -3 140 -5 143
-19 2 -10 -157 -224 -372 -502 l-376 -486 0 -209 c0 -148 -3 -211 -12 -220
-15 -15 -265 -17 -288 -2 -12 8 -16 48 -20 227 l-5 218 -359 470 c-197 259
-363 476 -369 482 -5 7 -7 20 -3 28 4 12 31 15 156 15 83 0 160 -4 170 -10z
m2594 -329 c135 -36 204 -96 243 -211 16 -48 18 -90 18 -340 0 -277 -1 -287
-24 -345 -47 -119 -140 -181 -305 -204 -95 -13 -815 -14 -904 -1 -158 22 -242
72 -291 172 -41 83 -56 227 -47 468 8 257 36 338 140 408 106 71 204 82 716
77 343 -3 382 -5 454 -24z m684 -833 c17 -17 17 -249 0 -266 -17 -17 -249 -17
-266 0 -17 17 -17 249 0 266 8 8 52 12 133 12 81 0 125 -4 133 -12z m-3048
-708 l0 -50 85 0 85 0 0 50 c0 49 1 50 30 50 l30 0 0 -130 0 -130 -30 0 c-30
0 -30 1 -30 55 l0 55 -85 0 -85 0 0 -55 c0 -54 0 -55 -30 -55 l-30 0 0 130 0
130 30 0 c29 0 30 -1 30 -50z m620 -39 c0 -114 6 -121 104 -121 48 0 77 5 84
13 6 7 12 53 14 103 3 89 3 89 31 92 l27 3 0 -104 c0 -148 -3 -151 -149 -155
-107 -4 -111 -3 -136 22 -24 24 -25 31 -25 131 l0 105 25 0 c25 0 25 -1 25
-89z m748 -18 c25 -57 48 -103 51 -103 3 0 24 42 45 93 22 50 44 98 49 105 6
8 26 12 51 10 l41 -3 3 -127 3 -128 -25 0 c-25 0 -25 1 -28 103 l-3 102 -50
-100 c-51 -102 -63 -113 -109 -101 -17 4 -34 29 -66 101 -24 52 -47 95 -51 95
-5 0 -9 -45 -9 -100 l0 -100 -25 0 -25 0 0 123 c0 68 3 127 7 131 4 4 27 6 51
4 l45 -3 45 -102z m783 91 c17 -21 129 -225 129 -236 0 -4 -13 -8 -28 -8 -21
0 -32 7 -40 25 -11 24 -15 25 -102 25 -87 0 -91 -1 -102 -25 -8 -18 -19 -25
-40 -25 -15 0 -28 3 -28 6 0 11 112 218 128 237 19 21 65 22 83 1z m626 -86
l78 -103 5 100 5 100 28 3 28 3 -3 -128 -3 -128 -44 0 c-45 0 -45 0 -119 95
-40 52 -77 97 -83 98 -5 2 -9 -38 -9 -97 l0 -101 -25 0 -25 0 0 123 c0 68 3
127 7 130 3 4 23 7 44 7 37 0 41 -4 116 -102z"/>
<path d="M2685 2845 c-85 -30 -105 -91 -105 -313 1 -164 11 -226 43 -260 52
-56 56 -57 414 -60 361 -4 423 2 472 44 48 40 56 80 56 279 0 213 -11 259 -73
297 -37 23 -41 23 -402 25 -297 2 -372 0 -405 -12z"/>
<path d="M3305 1480 l-25 -50 60 0 60 0 -25 50 c-14 28 -30 50 -35 50 -5 0
-21 -22 -35 -50z"/>
</g>
</svg>
