<?xml version="1.0" encoding="UTF-8"?>
<svg width="512px" height="512px" viewBox="0 0 512 512" version="1.1" xmlns="http://www.w3.org/2000/svg" xmlns:xlink="http://www.w3.org/1999/xlink">
    <!-- Generator: Sketch 58 (84663) - https://sketch.com -->
    <title>Group 4</title>
    <desc>Created with Sketch.</desc>
    <g id="Welcome" stroke="none" stroke-width="1" fill="none" fill-rule="evenodd">
        <g id="Tablet-Portrait" transform="translate(-55.000000, -320.000000)">
            <g id="Group-4" transform="translate(55.000000, 320.000000)">
                <rect id="Rectangle" fill="#0B6DE7" x="0" y="0" width="512" height="512"></rect>
                <g id="Group" transform="translate(117.000000, 159.000000)" fill="#FFFFFF" fill-rule="nonzero">
                    <path d="M23.858,34.3 C25.4686747,34.3 26.6766626,34.903994 27.482,36.112 L67.799,90.623 L108.418,36.112 C109.223337,34.903994 110.431325,34.3 112.042,34.3 L131.823,34.3 C132.628337,34.3 133.181998,34.6271634 133.484,35.2815 C133.786002,35.9358366 133.685336,36.6153298 133.182,37.32 L78.973,107.686 L78.973,136.678 C78.973,138.892678 77.8656777,140 75.651,140 L59.343,140 C57.0276551,140 55.87,138.892678 55.87,136.678 L55.87,107.686 L2.265,37.32 C1.76166586,36.6153298 1.63583208,35.9358366 1.8875,35.2815 C2.13916793,34.6271634 2.71799547,34.3 3.624,34.3 L23.858,34.3 Z M197.911,57.101 C204.6557,57.101 210.34331,57.6798275 214.974,58.8375 C219.60469,59.9951725 223.304153,61.8071543 226.0725,64.2735 C228.840847,66.7398457 230.828994,69.910814 232.037,73.7865 C233.245006,77.662186 233.849,82.3179728 233.849,87.754 L233.849,109.498 C233.849,114.934027 233.245006,119.589814 232.037,123.4655 C230.828994,127.341186 228.840847,130.512154 226.0725,132.9785 C223.304153,135.444846 219.60469,137.231661 214.974,138.339 C210.34331,139.446339 204.6557,140 197.911,140 L155.178,140 C148.332632,140 142.619856,139.446339 138.0395,138.339 C133.459144,137.231661 129.784847,135.444846 127.0165,132.9785 C124.248153,130.512154 122.260006,127.341186 121.052,123.4655 C119.843994,119.589814 119.24,114.934027 119.24,109.498 L119.24,87.754 C119.24,82.3179728 119.843994,77.662186 121.052,73.7865 C122.260006,69.910814 124.248153,66.7398457 127.0165,64.2735 C129.784847,61.8071543 133.459144,59.9951725 138.0395,58.8375 C142.619856,57.6798275 148.332632,57.101 155.178,57.101 L197.911,57.101 Z M140.833,105.723 C140.833,108.944349 141.084664,111.611989 141.588,113.726 C142.091336,115.840011 142.97216,117.52616 144.2305,118.7845 C145.48884,120.04284 147.174989,120.948831 149.289,121.5025 C151.403011,122.056169 154.070651,122.333 157.292,122.333 L195.797,122.333 C199.119017,122.333 201.836989,122.056169 203.951,121.5025 C206.065011,120.948831 207.75116,120.04284 209.0095,118.7845 C210.26784,117.52616 211.148664,115.840011 211.652,113.726 C212.155336,111.611989 212.407,108.944349 212.407,105.723 L212.407,91.378 C212.407,88.2573177 212.155336,85.6400106 211.652,83.526 C211.148664,81.4119894 210.26784,79.7006732 209.0095,78.392 C207.75116,77.0833268 206.065011,76.1773358 203.951,75.674 C201.836989,75.1706641 199.119017,74.919 195.797,74.919 L157.292,74.919 C154.070651,74.919 151.403011,75.1706641 149.289,75.674 C147.174989,76.1773358 145.48884,77.0833268 144.2305,78.392 C142.97216,79.7006732 142.091336,81.4119894 141.588,83.526 C141.084664,85.6400106 140.833,88.2573177 140.833,91.378 L140.833,105.723 Z M263.093,29.015 C265.408345,29.015 266.566,30.1726551 266.566,32.488 L262.338,100.438 C262.237333,102.652678 261.130011,103.76 259.016,103.76 L250.258,103.76 C248.216886,103.76 247.114231,102.727728 246.950005,100.663154 L242.708,32.488 C242.708,30.1726551 243.865655,29.015 246.181,29.015 L263.093,29.015 Z M262.036,118.86 C264.250678,118.86 265.358,119.967322 265.358,122.182 L265.358,136.678 C265.358,138.892678 264.250678,140 262.036,140 L247.238,140 C244.922655,140 243.765,138.892678 243.765,136.678 L243.765,122.182 C243.765,119.967322 244.922655,118.86 247.238,118.86 L262.036,118.86 Z" id="Yo!"></path>
                    <path d="M41.577975,168.1 C41.973977,168.1 42.171975,168.297998 42.171975,168.694 L42.171975,175.714 L54.807975,175.714 L54.807975,168.694 C54.807975,168.297998 55.005973,168.1 55.401975,168.1 L58.317975,168.1 C58.7319771,168.1 58.938975,168.297998 58.938975,168.694 L58.938975,186.406 C58.938975,186.802002 58.7319771,187 58.317975,187 L55.401975,187 C55.005973,187 54.807975,186.802002 54.807975,186.406 L54.807975,179.224 L42.171975,179.224 L42.171975,186.406 C42.171975,186.802002 41.973977,187 41.577975,187 L38.661975,187 C38.2479729,187 38.040975,186.802002 38.040975,186.406 L38.040975,168.694 C38.040975,168.297998 38.2479729,168.1 38.661975,168.1 L41.577975,168.1 Z M87.120385,168.1 C87.516387,168.1 87.714385,168.297998 87.714385,168.694 L87.714385,179.467 C87.714385,180.187004 87.7728844,180.785498 87.889885,181.2625 C88.0068856,181.739502 88.2003836,182.117499 88.470385,182.3965 C88.7403863,182.675501 89.1048827,182.873499 89.563885,182.9905 C90.0228873,183.107501 90.6033815,183.166 91.305385,183.166 L98.784385,183.166 C99.4863885,183.166 100.066883,183.107501 100.525885,182.9905 C100.984887,182.873499 101.349384,182.675501 101.619385,182.3965 C101.889386,182.117499 102.078384,181.739502 102.186385,181.2625 C102.294386,180.785498 102.348385,180.187004 102.348385,179.467 L102.348385,168.694 C102.348385,168.297998 102.546383,168.1 102.942385,168.1 L105.885385,168.1 C106.281387,168.1 106.479385,168.297998 106.479385,168.694 L106.479385,179.872 C106.479385,181.168006 106.344386,182.270495 106.074385,183.1795 C105.804384,184.088505 105.367888,184.826497 104.764885,185.3935 C104.161882,185.960503 103.37889,186.369999 102.415885,186.622 C101.45288,186.874001 100.287392,187 98.919385,187 L91.143385,187 C89.7753782,187 88.6143898,186.874001 87.660385,186.622 C86.7063802,186.369999 85.927888,185.960503 85.324885,185.3935 C84.721882,184.826497 84.2808864,184.088505 84.001885,183.1795 C83.7228836,182.270495 83.583385,181.168006 83.583385,179.872 L83.583385,168.694 C83.583385,168.297998 83.7903829,168.1 84.204385,168.1 L87.120385,168.1 Z M136.496795,168.1 C136.892797,168.1 137.234794,168.127 137.522795,168.181 C137.810796,168.235 138.062794,168.338499 138.278795,168.4915 C138.494796,168.644501 138.688294,168.851499 138.859295,169.1125 C138.996096,169.321301 139.135775,169.584819 139.278335,169.903059 L145.001795,183.112 C145.073795,183.274001 145.199794,183.355 145.379795,183.355 L145.703795,183.355 C145.883796,183.355 146.009795,183.274001 146.081795,183.112 L151.697795,170.152 C151.877796,169.719998 152.053294,169.373501 152.224295,169.1125 C152.395296,168.851499 152.588794,168.644501 152.804795,168.4915 C153.020796,168.338499 153.268294,168.235 153.547295,168.181 C153.826296,168.127 154.163793,168.1 154.559795,168.1 L157.448795,168.1 C158.3848,168.1 159.014793,168.311498 159.338795,168.7345 C159.662797,169.157502 159.824795,169.881995 159.824795,170.908 L159.824795,186.406 C159.824795,186.802002 159.617797,187 159.203795,187 L156.449795,187 C156.053793,187 155.855795,186.802002 155.855795,186.406 L155.855795,172.312 C155.855795,172.131999 155.783796,172.042 155.639795,172.042 L155.396795,172.042 C155.216794,172.042 155.099795,172.113999 155.045795,172.258 L149.591795,184.354 C149.375794,184.840002 149.155296,185.249498 148.930295,185.5825 C148.705294,185.915502 148.462296,186.189999 148.201295,186.406 C147.940294,186.622001 147.643297,186.775 147.310295,186.865 C146.977293,186.955 146.585797,187 146.135795,187 L144.839795,187 C144.389793,187 143.998297,186.955 143.665295,186.865 C143.332293,186.775 143.035296,186.622001 142.774295,186.406 C142.513294,186.189999 142.270296,185.915502 142.045295,185.5825 C141.820294,185.249498 141.599796,184.840002 141.383795,184.354 L135.929795,172.258 C135.875795,172.113999 135.758796,172.042 135.578795,172.042 L135.335795,172.042 C135.191794,172.042 135.119795,172.131999 135.119795,172.312 L135.119795,186.406 C135.119795,186.802002 134.921797,187 134.525795,187 L131.771795,187 C131.357793,187 131.150795,186.802002 131.150795,186.406 L131.150795,170.908 C131.150795,169.881995 131.312793,169.157502 131.636795,168.7345 C131.960797,168.311498 132.59979,168.1 133.553795,168.1 L136.496795,168.1 Z M196.511205,168.1 C197.195208,168.1 197.771203,168.239499 198.239205,168.5185 C198.707207,168.797501 199.166203,169.341996 199.616205,170.152 L208.553205,186.379 C208.643205,186.559001 208.665705,186.707499 208.620705,186.8245 C208.575705,186.941501 208.445206,187 208.229205,187 L204.800205,187 C204.532454,187 204.340502,186.910423 204.224346,186.731266 L202.262205,183.166 L189.572205,183.166 L187.709205,186.649 C187.583204,186.883001 187.376206,187 187.088205,187 L183.578205,187 C183.344204,187 183.204705,186.941501 183.159705,186.8245 C183.114705,186.707499 183.137205,186.559001 183.227205,186.379 L192.083205,170.152 C192.533207,169.341996 192.974203,168.797501 193.406205,168.5185 C193.838207,168.239499 194.342202,168.1 194.918205,168.1 L196.511205,168.1 Z M191.273205,180.034 L200.561205,180.034 L196.268205,172.123 C196.196205,171.996999 196.097206,171.934 195.971205,171.934 L195.809205,171.934 C195.683204,171.934 195.584205,171.996999 195.512205,172.123 L191.273205,180.034 Z M236.788615,168.1 C237.220617,168.1 237.580614,168.118 237.868615,168.154 C238.156616,168.19 238.408614,168.266499 238.624615,168.3835 C238.840616,168.500501 239.047614,168.662499 239.245615,168.8695 C239.443616,169.076501 239.668614,169.350998 239.920615,169.693 L249.964615,182.869 C250.036615,182.995001 250.153614,183.058 250.315615,183.058 L250.558615,183.058 C250.702616,183.058 250.774615,182.968001 250.774615,182.788 L250.774615,168.694 C250.774615,168.297998 250.972613,168.1 251.368615,168.1 L254.203615,168.1 C254.599617,168.1 254.797615,168.297998 254.797615,168.694 L254.797615,184.192 C254.797615,185.290005 254.599617,186.032498 254.203615,186.4195 C253.807613,186.806502 253.195619,187 252.367615,187 L250.045615,187 C249.631613,187 249.285116,186.982 249.006115,186.946 C248.727114,186.91 248.479616,186.838001 248.263615,186.73 C248.047614,186.621999 247.836116,186.464501 247.629115,186.2575 C247.463514,186.091899 247.277756,185.877341 247.071835,185.613821 L236.842615,172.231 C236.734614,172.104999 236.617616,172.042 236.491615,172.042 L236.248615,172.042 C236.104614,172.042 236.032615,172.131999 236.032615,172.312 L236.032615,186.406 C236.032615,186.802002 235.834617,187 235.438615,187 L232.603615,187 C232.189613,187 231.982615,186.802002 231.982615,186.406 L231.982615,170.908 C231.982615,169.809995 232.180613,169.067502 232.576615,168.6805 C232.972617,168.293498 233.584611,168.1 234.412615,168.1 L236.788615,168.1 Z" id="HUMAN"></path>
                </g>
            </g>
        </g>
    </g>
</svg>